<svg xmlns="http://www.w3.org/2000/svg" xmlns:xlink="http://www.w3.org/1999/xlink"><symbol id="close-cross" viewBox="0 0 21 21"><path fill="#FB565A" d="M13.328 10.5l7.371-7.371a1.003 1.003 0 0 0 0-1.414L19.285.3a1.003 1.003 0 0 0-1.414 0L10.5 7.672 3.129.301a1.003 1.003 0 0 0-1.414 0L.301 1.715a1.003 1.003 0 0 0 0 1.414L7.672 10.5.301 17.871a1.003 1.003 0 0 0 0 1.414l1.415 1.414a1.003 1.003 0 0 0 1.414 0l7.371-7.371 7.371 7.371a1.003 1.003 0 0 0 1.414 0l1.414-1.414a1.003 1.003 0 0 0 0-1.414L13.328 10.5z"/></symbol><symbol id="icon-burger" viewBox="0 0 32 32">
<path d="M4 24H28V21.3333H4V24ZM4 17.3333H28V14.6667H4V17.3333ZM4 8V10.6667H28V8H4Z" fill="#356EAD"/>
</symbol><symbol id="icon-mail" viewBox="0 0 20 16">
<path d="M18 0H2C0.9 0 0.00999999 0.9 0.00999999 2L0 14C0 15.1 0.9 16 2 16H18C19.1 16 20 15.1 20 14V2C20 0.9 19.1 0 18 0ZM18 4L10 9L2 4V2L10 7L18 2V4Z" fill="#1F3F68"/>
</symbol><symbol id="icon-menu-cross" viewBox="0 0 23.867 23.867">
  <path d="M15.087,11.933l8.56-8.559c0.293-0.293,0.293-0.768,0-1.061L21.554,0.22C21.414,0.079,21.223,0,21.023,0 c-0.199,0-0.391,0.079-0.529,0.22l-8.561,8.56l-8.56-8.56c-0.282-0.282-0.78-0.282-1.061,0L0.22,2.313 c-0.293,0.293-0.293,0.768,0,1.061l8.56,8.559l-8.56,8.559c-0.293,0.293-0.293,0.768,0,1.062l2.093,2.094 c0.141,0.142,0.331,0.22,0.53,0.22c0.199,0,0.39-0.078,0.53-0.22l8.561-8.56l8.56,8.56c0.141,0.142,0.332,0.22,0.53,0.22 c0.199,0,0.39-0.078,0.53-0.22l2.093-2.094c0.293-0.294,0.293-0.769,0-1.062L15.087,11.933z"/>
</symbol><symbol id="icon-phone" viewBox="0 0 24 24">
<path d="M6.62 10.79C8.06 13.62 10.38 15.93 13.21 17.38L15.41 15.18C15.68 14.91 16.08 14.82 16.43 14.94C17.55 15.31 18.76 15.51 20 15.51C20.55 15.51 21 15.96 21 16.51V20C21 20.55 20.55 21 20 21C10.61 21 3 13.39 3 4C3 3.45 3.45 3 4 3H7.5C8.05 3 8.5 3.45 8.5 4C8.5 5.25 8.7 6.45 9.07 7.57C9.18 7.92 9.1 8.31 8.82 8.59L6.62 10.79Z" fill="#1F3F68"/>
</symbol><symbol id="icon-right-arrow" viewBox="0 0 16 16">
<path d="M8 0L6.59 1.41L12.17 7H0V9H12.17L6.59 14.59L8 16L16 8L8 0Z" fill="#5A98D0"/>
</symbol><symbol id="icon-web" viewBox="0 0 20 20">
<path d="M9.99 0C4.47 0 0 4.48 0 10C0 15.52 4.47 20 9.99 20C15.52 20 20 15.52 20 10C20 4.48 15.52 0 9.99 0ZM16.92 6H13.97C13.65 4.75 13.19 3.55 12.59 2.44C14.43 3.07 15.96 4.35 16.92 6ZM10 2.04C10.83 3.24 11.48 4.57 11.91 6H8.09C8.52 4.57 9.17 3.24 10 2.04ZM2.26 12C2.1 11.36 2 10.69 2 10C2 9.31 2.1 8.64 2.26 8H5.64C5.56 8.66 5.5 9.32 5.5 10C5.5 10.68 5.56 11.34 5.64 12H2.26ZM3.08 14H6.03C6.35 15.25 6.81 16.45 7.41 17.56C5.57 16.93 4.04 15.66 3.08 14ZM6.03 6H3.08C4.04 4.34 5.57 3.07 7.41 2.44C6.81 3.55 6.35 4.75 6.03 6ZM10 17.96C9.17 16.76 8.52 15.43 8.09 14H11.91C11.48 15.43 10.83 16.76 10 17.96ZM12.34 12H7.66C7.57 11.34 7.5 10.68 7.5 10C7.5 9.32 7.57 8.65 7.66 8H12.34C12.43 8.65 12.5 9.32 12.5 10C12.5 10.68 12.43 11.34 12.34 12ZM12.59 17.56C13.19 16.45 13.65 15.25 13.97 14H16.92C15.96 15.65 14.43 16.93 12.59 17.56ZM14.36 12C14.44 11.34 14.5 10.68 14.5 10C14.5 9.32 14.44 8.66 14.36 8H17.74C17.9 8.64 18 9.31 18 10C18 10.69 17.9 11.36 17.74 12H14.36Z" fill="#1F3F68"/>
</symbol></svg>